<svg xmlns="http://www.w3.org/2000/svg" width="92.196" height="111.428" viewBox="0 0 92.196 111.428"><g transform="translate(-460.423 -456.379)"><path d="M525.376,766.194,470.29,749.667l35.221-25,54.85,14.313Z" transform="translate(-8.742 -198.56)" fill="#2d2d2d"/><path d="M0,0H7.6V82.745L0,80.69Z" transform="translate(509.148 485.063)" fill="#746b6b"/><path d="M0,0H36.194V63.991L0,91.8Z" transform="translate(516.425 476.008)" fill="#3b3b3b"/><path d="M81,948.91l36.107,7.991v7.347L81,990.042Z" transform="translate(387.211 -457.031)" fill="#3b3b3b"/><path d="M0,0H7.6V42.274L0,39.594Z" transform="translate(460.613 490.851)" fill="#746b6b"/><path d="M72,939.152l55.812,13.594v6.349L72,945.678Z" transform="translate(388.614 -454.594)" fill="#746b6b"/><path d="M0,0H0L29.785,30.493,28.942,87.7,1.435,53.875Z" transform="translate(552.577 476.108) rotate(103)" fill="#7aa877"/></g></svg>